<?xml version="1.0" encoding="UTF-8" standalone="no"?><!DOCTYPE svg PUBLIC "-//W3C//DTD SVG 1.1//EN" "http://www.w3.org/Graphics/SVG/1.1/DTD/svg11.dtd"><svg width="100%" height="100%" viewBox="0 0 420 596" version="1.1" xmlns="http://www.w3.org/2000/svg" xmlns:xlink="http://www.w3.org/1999/xlink" xml:space="preserve" xmlns:serif="http://www.serif.com/" style="fill-rule:evenodd;clip-rule:evenodd;stroke-linejoin:round;stroke-miterlimit:1.41421;"><g id="Layer1"><path d="M23.361,59.855l372.805,0l0,75.847c0,0 -31.682,-72.941 -61.289,0c-0.255,0.628 0,118.388 0,118.388l-40.935,0l0,-118.388c0,0 -35.59,-72.083 -63.78,0c-1.868,4.776 0,118.388 0,118.388l-40.884,0l0,-118.388c0,0 -28.389,-72.772 -62.362,0c-0.618,1.325 0,118.388 0,118.388l-41.193,0l0,-118.388c0,0 -30.985,-71.725 -62.362,0c-0.405,0.927 0,-75.847 0,-75.847Z" style="fill:#ff7b00;"/></g></svg>